<?xml version="1.0" standalone="no"?>
<!DOCTYPE svg PUBLIC "-//W3C//DTD SVG 20010904//EN"
 "http://www.w3.org/TR/2001/REC-SVG-20010904/DTD/svg10.dtd">
<svg version="1.0" xmlns="http://www.w3.org/2000/svg"
 width="512.000000pt" height="512.000000pt" viewBox="0 0 512.000000 512.000000"
 preserveAspectRatio="xMidYMid meet">
<metadata>
Created by potrace 1.14, written by Peter Selinger 2001-2017
</metadata>
<g transform="translate(0.000000,512.000000) scale(0.100000,-0.100000)"
fill="#000000" stroke="none">
<path d="M0 2560 l0 -2560 2560 0 2560 0 0 2560 0 2560 -2560 0 -2560 0 0
-2560z m2910 2002 c204 -44 414 -129 568 -229 126 -81 260 -185 322 -248 30
-31 69 -63 85 -71 17 -7 46 -23 65 -34 19 -11 46 -20 60 -20 14 0 31 -4 39 -9
10 -7 0 -11 -35 -16 -27 -3 -55 -7 -61 -8 -7 -1 10 -35 40 -79 l52 -78 130 -2
c71 -1 103 -3 70 -5 -139 -7 -184 -14 -178 -29 3 -8 19 -14 40 -14 20 0 32 -4
28 -10 -3 -5 -15 -10 -25 -10 -13 0 -17 -5 -14 -15 5 -12 26 -15 98 -16 l91
-2 -80 -9 c-43 -5 -81 -11 -83 -13 -10 -10 12 -25 36 -25 15 0 34 -5 42 -10
11 -7 5 -10 -23 -10 -35 0 -37 -2 -27 -20 8 -15 22 -20 53 -21 l42 -1 -37 -10
c-21 -6 -38 -14 -38 -18 0 -4 11 -36 24 -71 130 -346 124 -840 -14 -1184 -101
-253 -206 -412 -405 -611 -151 -151 -247 -222 -427 -315 -203 -104 -518 -186
-693 -181 -137 4 -279 20 -398 43 l-109 22 -126 -61 c-234 -112 -873 -402
-887 -402 -3 0 18 49 87 200 12 25 25 53 31 64 6 12 6 16 -2 12 -11 -7 78 186
90 194 4 3 18 34 32 70 13 36 38 92 54 125 17 33 36 76 42 96 l12 36 -104 104
c-169 170 -256 292 -351 489 l-55 115 -68 6 -68 5 67 2 c59 2 66 4 61 21 -6
23 -53 30 -222 33 l-126 1 130 8 c72 3 147 7 167 8 29 1 36 4 32 16 -5 12 -32
15 -153 16 -218 2 -235 14 -33 23 121 6 172 12 169 20 -2 7 -51 13 -135 17
-72 3 -135 8 -138 12 -4 4 8 8 27 8 19 1 80 4 136 8 88 5 101 8 93 21 -7 12
-38 16 -150 18 -77 2 -140 8 -140 13 0 5 53 9 118 9 64 0 127 3 140 6 49 14
12 29 -94 40 -60 6 -95 12 -79 13 129 9 180 13 183 15 1 2 -4 35 -13 75 -8 40
-15 99 -15 132 0 33 -4 59 -10 59 -5 0 -10 7 -10 15 0 18 -30 35 -67 36 -25 1
-24 2 7 8 28 5 36 11 38 32 3 22 -2 27 -29 33 -17 3 -58 6 -90 6 -46 0 -59 3
-59 15 0 12 15 15 73 15 39 0 81 3 92 6 21 5 73 84 55 84 -5 0 -10 7 -10 15 0
8 7 15 15 15 9 0 18 17 25 43 30 124 87 295 132 393 68 153 59 169 -105 182
l-92 8 95 7 c62 5 99 13 106 22 5 7 26 18 45 23 30 9 24 10 -51 12 -68 2 -78
4 -47 10 21 4 73 8 114 9 47 1 84 8 97 17 19 13 15 14 -44 14 -36 0 -117 3
-180 8 l-115 7 75 6 c41 4 125 7 186 8 86 1 114 4 124 16 11 13 6 15 -36 16
-37 0 -44 3 -29 9 11 5 37 9 57 9 31 1 43 9 87 59 126 141 313 282 501 378 63
33 124 67 135 77 11 10 43 29 70 43 42 21 74 26 199 34 82 6 152 13 155 16 3
3 105 4 226 1 173 -3 240 -9 315 -25z m-2320 -1411 c23 -8 -25 -19 -87 -20
-50 -1 -63 6 -46 23 8 8 109 6 133 -3z m2130 -2380 c36 -6 83 -16 105 -21 22
-6 49 -12 60 -15 18 -4 219 -24 433 -44 94 -9 120 -21 46 -21 -80 0 -537 -53
-604 -70 -19 -5 -62 -12 -95 -15 -33 -4 -69 -8 -80 -9 -22 -4 -107 7 -175 22
-25 6 -79 13 -120 17 -41 4 -78 9 -82 11 -11 7 -243 31 -373 40 -119 8 -113
17 17 28 75 5 186 19 318 37 41 6 87 12 101 13 14 2 30 5 35 8 5 3 32 6 59 7
28 1 88 8 135 15 91 14 120 14 220 -3z"/>
<path d="M2380 4536 c-53 -8 -111 -21 -130 -30 -35 -16 -35 -16 -5 -11 l30 5
-25 -16 c-17 -10 -18 -13 -6 -9 61 19 296 28 445 17 163 -13 321 -39 321 -53
0 -5 9 -9 19 -9 28 0 290 -80 334 -102 36 -18 52 -36 22 -24 -22 8 -18 -2 6
-15 17 -8 20 -8 14 1 -5 8 -3 11 6 8 8 -3 13 -11 11 -17 -1 -7 2 -10 7 -7 5 4
33 -7 62 -24 56 -34 78 -35 31 -2 -134 96 -355 199 -517 242 -198 51 -454 70
-625 46z"/>
<path d="M1867 4385 c-200 -86 -424 -256 -557 -422 -63 -78 -70 -93 -43 -93
15 0 15 -1 -1 -19 -16 -17 -15 -19 15 -31 30 -13 32 -12 57 21 15 19 63 74
107 122 44 49 95 112 112 140 18 29 45 62 60 75 57 47 221 150 309 194 88 43
90 45 53 45 -22 0 -72 -14 -112 -32z m83 10 c-14 -8 -29 -14 -35 -14 -5 0 1 6
15 14 14 8 30 14 35 14 6 0 -1 -6 -15 -14z"/>
<path d="M2515 4395 c-5 -2 -45 -6 -87 -10 -54 -5 -83 -12 -99 -26 -12 -10
-26 -19 -30 -19 -12 0 -59 -52 -54 -60 2 -4 -13 -12 -33 -18 -32 -10 -50 -8
-106 8 -67 19 -68 19 -117 0 -187 -74 -408 -230 -545 -385 -90 -101 -89 -99
-6 -92 l71 6 -37 -38 c-47 -49 -152 -250 -191 -366 -26 -80 -48 -187 -80 -395
-10 -63 -10 -62 -5 30 7 158 44 324 101 460 42 98 116 231 144 256 31 28 22
35 -33 32 -52 -3 -54 -4 -91 -58 -90 -133 -194 -398 -222 -570 -8 -53 -15
-158 -15 -237 l0 -142 38 -4 37 -4 -37 -1 c-21 -1 -38 -5 -38 -9 0 -5 11 -69
24 -143 43 -239 110 -401 240 -572 73 -98 238 -265 321 -327 33 -25 64 -48 68
-52 11 -9 -65 -194 -148 -359 l-66 -132 33 19 c54 33 242 127 411 207 l159 75
82 -19 c175 -42 438 -64 475 -41 21 13 4 18 -114 31 -60 6 -111 13 -113 15 -4
4 40 10 203 25 257 24 287 30 403 69 142 48 148 49 144 33 -2 -9 5 -12 20 -8
13 3 5 -3 -17 -14 -22 -11 -48 -18 -58 -16 -9 2 -15 1 -12 -4 4 -6 -114 -52
-193 -76 -18 -5 -5 -24 17 -24 40 0 201 53 287 95 293 142 544 395 698 704 92
184 129 323 146 546 11 144 -1 291 -36 445 -20 91 -72 246 -102 305 -58 116
-185 297 -256 365 l-37 35 -132 6 c-126 5 -128 6 -42 8 50 2 101 6 114 10 23
6 21 9 -36 61 -187 174 -510 328 -750 359 -90 11 -283 22 -298 16z m-278 -181
c-3 -3 -12 -4 -19 -1 -8 3 -5 6 6 6 11 1 17 -2 13 -5z m213 -5 c-30 -4 -68
-12 -85 -18 -28 -10 -27 -10 11 -5 86 11 321 6 414 -10 186 -31 370 -103 525
-207 69 -46 265 -246 293 -300 13 -24 32 -59 44 -76 11 -18 15 -33 9 -33 -6 0
-32 33 -58 73 -55 83 -221 251 -307 309 -59 41 -264 143 -271 136 -2 -2 33
-23 78 -46 111 -58 115 -61 168 -107 26 -22 67 -57 92 -78 70 -58 142 -146
130 -158 -8 -8 -18 -2 -33 19 -23 30 -121 107 -105 83 4 -8 2 -17 -6 -22 -12
-8 -12 -11 1 -18 10 -7 17 -6 22 2 5 9 8 8 8 -3 0 -8 9 -21 20 -28 11 -7 20
-17 20 -23 0 -5 -10 -3 -22 5 -28 20 -34 20 -42 1 -3 -10 14 -39 45 -78 28
-34 55 -71 60 -82 5 -11 -1 -7 -13 9 -44 57 -92 107 -111 118 -12 6 -5 -9 21
-43 33 -43 38 -55 25 -57 -8 -2 -27 6 -42 17 -75 61 -148 114 -168 122 -11 4
-24 13 -29 20 -5 8 -3 9 6 4 8 -5 11 -4 7 2 -6 9 -53 21 -109 28 -26 3 -14 -9
60 -58 38 -25 105 -84 150 -132 65 -70 84 -98 97 -140 19 -66 19 -74 0 -49 -8
10 -15 15 -15 10 0 -5 -31 35 -69 89 -77 110 -177 202 -259 241 -68 32 -90 26
-34 -9 23 -15 42 -28 42 -30 0 -1 -17 -1 -39 1 -21 2 -42 -1 -45 -7 -4 -6 -1
-11 7 -11 8 0 22 -10 33 -22 l19 -21 -40 20 c-77 39 -101 43 -140 23 -19 -10
-35 -14 -35 -8 0 5 -10 8 -22 7 -13 -2 -28 0 -34 4 -18 11 -124 17 -124 7 0
-6 -11 -5 -26 0 -41 16 -64 13 -57 -7 6 -17 5 -17 -14 0 -23 20 -43 22 -43 5
0 -9 -3 -9 -12 0 -8 8 -15 9 -25 1 -9 -9 -13 -8 -13 0 0 7 -5 9 -12 5 -15 -10
-60 -13 -73 -5 -22 12 -41 9 -63 -12 -17 -16 -22 -17 -17 -5 6 14 2 16 -22 12
-15 -3 -37 -13 -48 -23 -36 -32 -98 -70 -107 -65 -4 3 -8 17 -8 32 0 25 -4 22
-65 -38 -72 -72 -142 -170 -192 -270 -34 -68 -83 -241 -83 -292 0 -17 -4 -27
-10 -23 -16 10 -11 95 10 175 57 207 123 323 265 466 56 57 92 96 79 86 -103
-78 -140 -107 -149 -116 -5 -6 -18 -12 -28 -12 -17 -2 -17 -1 -1 25 10 14 33
45 52 69 30 37 32 42 15 42 -11 0 -34 -13 -51 -30 -41 -39 -51 -39 -18 1 28
32 31 44 17 53 -14 9 -122 -105 -179 -187 -108 -156 -183 -358 -200 -539 l-8
-78 30 -2 31 -1 -32 -4 -33 -4 0 -62 c0 -81 26 -228 42 -239 7 -4 9 -8 4 -8
-6 0 -5 -5 2 -12 7 -7 12 -19 12 -27 0 -31 -41 52 -54 107 -10 45 -17 58 -34
60 l-21 3 25 -93 c33 -118 70 -207 139 -332 30 -55 54 -101 52 -102 -6 -6 -86
122 -125 198 -35 69 -78 190 -102 286 l-11 42 -54 0 c-54 0 -55 -1 -55 -29 0
-46 58 -229 101 -319 51 -108 136 -237 185 -284 58 -54 185 -146 219 -158 29
-9 28 -8 -10 23 -22 17 -59 51 -82 74 -23 24 -47 43 -53 43 -5 0 -10 4 -10 9
0 13 89 -38 125 -71 17 -16 50 -40 75 -55 25 -14 53 -33 63 -41 9 -8 19 -13
21 -11 2 2 -27 31 -65 64 -38 33 -92 87 -121 120 -46 53 -42 50 37 -25 108
-102 154 -138 183 -143 12 -2 28 -9 34 -15 14 -14 38 -16 38 -3 0 5 -7 14 -15
21 -8 7 -15 9 -15 5 0 -4 -19 8 -42 26 -60 45 -64 49 -53 49 6 0 26 -14 45
-30 19 -16 39 -30 44 -30 18 0 76 -45 76 -58 0 -9 7 -11 23 -7 16 5 18 4 7 -4
-12 -8 -9 -14 15 -38 17 -15 41 -35 55 -44 30 -20 18 -39 -11 -20 -12 7 -23
10 -26 7 -8 -8 75 -56 107 -63 17 -3 33 -10 36 -14 7 -12 12 -13 -89 15 -48
13 -87 20 -87 16 0 -13 169 -71 255 -86 44 -9 135 -18 203 -21 118 -6 150 -16
96 -29 -43 -11 -242 4 -334 25 -47 11 -132 36 -189 56 -58 20 -117 35 -135 33
l-31 -3 40 -22 c22 -12 38 -22 35 -23 -9 0 -112 41 -151 61 -30 15 -43 17 -56
8 -14 -8 -28 -5 -63 15 -25 14 -56 35 -70 47 l-25 21 35 -21 c19 -11 49 -27
65 -36 30 -15 30 -15 5 2 -34 24 -109 97 -90 87 8 -4 27 -16 42 -26 58 -40 35
-12 -103 130 -160 163 -216 239 -294 405 -50 105 -91 224 -82 233 2 3 12 -21
20 -53 21 -72 117 -264 180 -360 51 -76 238 -263 291 -290 19 -9 -25 40 -110
123 -114 113 -152 158 -201 239 -79 128 -125 236 -153 355 -29 124 -28 120
-41 120 -7 0 -9 -14 -5 -42 4 -31 3 -37 -3 -23 -5 11 -10 30 -10 43 -1 17 -7
22 -28 23 -20 1 -22 3 -8 6 19 4 20 12 20 181 1 146 5 195 23 279 26 116 69
247 102 313 26 52 114 198 133 220 45 54 38 28 -14 -55 -146 -233 -205 -407
-234 -692 -6 -62 -5 -63 18 -63 23 0 25 -4 31 -72 10 -108 10 -108 62 -108 28
0 44 4 45 13 0 10 2 10 6 0 12 -31 22 -9 17 40 -12 119 -10 117 -57 119 -42 1
-42 1 -6 5 l36 4 7 77 c22 234 84 422 201 602 84 128 212 252 322 310 55 29
79 47 70 52 -8 5 -5 8 10 8 21 0 40 16 30 26 -3 3 -38 -10 -78 -30 -40 -20
-74 -34 -76 -32 -8 8 226 137 332 184 80 36 3 16 -95 -24 -119 -49 -121 -49
-65 -17 28 16 75 39 105 51 68 27 229 60 290 60 l45 -1 -55 -8z m-299 -25
c-29 -13 -56 -24 -60 -23 -9 1 93 49 104 48 6 0 -14 -11 -44 -25z m-291 -247
c0 -2 -10 -12 -22 -23 l-23 -19 19 23 c18 21 26 27 26 19z m-17 -292 c-3 -9
-8 -14 -10 -11 -3 3 -2 9 2 15 9 16 15 13 8 -4z m-513 -15 c-6 -11 -13 -20
-16 -20 -2 0 0 9 6 20 6 11 13 20 16 20 2 0 0 -9 -6 -20z m836 -45 c-9 -9 -16
-13 -16 -8 0 12 22 34 28 28 2 -2 -3 -11 -12 -20z m564 5 c0 -5 -2 -10 -4 -10
-3 0 -8 5 -11 10 -3 6 -1 10 4 10 6 0 11 -4 11 -10z m776 -110 c15 -22 25 -42
23 -44 -2 -2 -16 16 -31 40 -34 55 -28 58 8 4z m-906 -26 c0 -8 -4 -12 -10 -9
-5 3 -10 10 -10 16 0 5 5 9 10 9 6 0 10 -7 10 -16z m-560 -4 c0 -5 -2 -10 -4
-10 -3 0 -8 5 -11 10 -3 6 -1 10 4 10 6 0 11 -4 11 -10z m-670 -65 c-16 -47
-23 -40 -8 8 6 20 13 35 16 33 2 -3 -1 -21 -8 -41z m583 -30 c-3 -9 -8 -14
-10 -11 -3 3 -2 9 2 15 9 16 15 13 8 -4z m-615 -73 c-6 -29 -13 -50 -16 -47
-2 2 1 27 8 55 7 28 14 49 16 47 3 -2 -1 -27 -8 -55z m325 28 c-3 -12 -8 -19
-11 -16 -5 6 5 36 12 36 2 0 2 -9 -1 -20z m-466 -12 c-3 -8 -6 -5 -6 6 -1 11
2 17 5 13 3 -3 4 -12 1 -19z m2605 -23 c3 -13 1 -22 -3 -19 -9 5 -13 44 -5 44
2 0 6 -11 8 -25z m58 10 c0 -8 5 -15 10 -15 6 0 10 -15 9 -32 l-1 -33 -11 32
c-7 17 -15 35 -19 39 -11 10 -10 24 2 24 6 0 10 -7 10 -15z m-2673 -37 c-3 -7
-5 -2 -5 12 0 14 2 19 5 13 2 -7 2 -19 0 -25z m-10 -50 c-3 -7 -5 -2 -5 12 0
14 2 19 5 13 2 -7 2 -19 0 -25z m138 -33 c-4 -25 -9 -44 -12 -41 -2 2 -1 25 2
51 4 25 9 44 12 41 2 -2 1 -25 -2 -51z m556 -8 c-13 -13 -15 1 -4 30 7 17 8
17 11 -1 2 -10 -1 -23 -7 -29z m2038 -74 c16 -101 15 -139 -3 -124 -7 6 -16
41 -20 79 -3 37 -9 90 -12 117 -5 47 -4 49 9 25 8 -14 20 -57 26 -97z m-1869
93 c0 -3 -4 -8 -10 -11 -5 -3 -10 -1 -10 4 0 6 5 11 10 11 6 0 10 -2 10 -4z
m-873 -48 c-3 -7 -5 -2 -5 12 0 14 2 19 5 13 2 -7 2 -19 0 -25z m2666 -44 c-6
-41 -8 -45 -13 -24 -4 14 -3 29 2 35 4 5 8 18 8 29 0 10 2 17 5 14 3 -2 2 -27
-2 -54z m-2676 -46 c-2 -13 -4 -3 -4 22 0 25 2 35 4 23 2 -13 2 -33 0 -45z
m1436 38 c52 -22 82 -61 82 -107 0 -35 -7 -47 -42 -80 -57 -53 -92 -53 -144 0
-32 32 -39 46 -39 78 0 47 28 89 74 109 38 16 31 16 69 0z m-306 -16 c45 -27
63 -87 40 -135 -22 -45 -70 -70 -129 -66 -27 2 -76 49 -88 86 -31 94 86 171
177 115z m664 -3 c42 -28 65 -89 50 -130 -14 -35 -67 -67 -112 -67 -30 0 -43
7 -68 35 -45 51 -44 104 3 151 41 41 78 44 127 11z m347 -5 c66 -43 67 -137 2
-175 -74 -44 -170 9 -170 94 0 85 92 130 168 81z m-1684 2 c12 -4 16 -20 16
-55 l0 -49 53 -2 52 -2 -51 -3 -51 -4 4 -47 c13 -131 75 -309 158 -452 70
-121 232 -281 342 -338 45 -23 88 -42 97 -42 9 0 16 -8 16 -17 0 -19 -36 -83
-46 -83 -14 0 -144 78 -199 119 -146 111 -295 286 -340 399 -10 23 -21 42 -27
42 -5 0 -6 5 -2 11 4 6 23 -20 45 -61 43 -83 69 -115 44 -55 -102 243 -112
274 -126 368 -10 74 -13 277 -3 277 1 0 9 -3 18 -6z m2226 -54 c0 -10 -4 -22
-10 -25 -6 -4 -10 7 -10 25 0 18 4 29 10 25 6 -3 10 -15 10 -25z m-2047 -57
c-7 -2 -19 -2 -25 0 -7 3 -2 5 12 5 14 0 19 -2 13 -5z m44 1 c-3 -3 -12 -4
-19 -1 -8 3 -5 6 6 6 11 1 17 -2 13 -5z m13 -86 c14 -78 26 -113 72 -203 52
-101 22 -93 340 -93 154 0 282 -2 284 -5 8 -7 -7 -35 -21 -41 -8 -3 -134 -6
-281 -7 -251 -1 -268 0 -282 17 -30 40 -103 197 -117 251 -14 52 -21 153 -11
153 2 0 10 -32 16 -72z m1994 -16 c17 -52 -18 -306 -44 -322 -5 -3 -13 -34
-19 -69 -6 -36 -15 -69 -21 -75 -8 -8 -9 -6 -5 7 4 9 3 17 -1 17 -5 -1 -20
-24 -33 -53 -47 -104 -65 -138 -78 -149 -26 -21 -22 -1 11 53 57 95 117 239
136 328 17 76 37 254 32 274 -4 16 17 6 22 -11z m-2507 -54 c-3 -8 -6 -5 -6 6
-1 11 2 17 5 13 3 -3 4 -12 1 -19z m2293 -119 c0 -6 -7 -35 -16 -65 -15 -51
-14 -54 6 -82 30 -40 23 -61 -24 -77 -22 -8 -44 -21 -48 -30 -11 -19 -28 -11
-28 13 0 10 -11 26 -25 36 -32 24 -31 37 3 97 17 31 34 49 46 49 15 0 17 -5
13 -27 l-5 -27 18 24 c10 13 23 41 29 62 11 35 31 53 31 27z m-1738 -107 c51
-87 165 -215 245 -274 29 -21 93 -58 142 -82 83 -40 119 -50 314 -84 59 -11
39 -27 -28 -24 -138 8 -289 54 -395 123 -118 76 -268 246 -320 362 -16 35 -18
57 -6 57 2 0 24 -35 48 -78z m1286 41 c-10 -2 -26 -2 -35 0 -10 3 -2 5 17 5
19 0 27 -2 18 -5z m-1927 -225 c97 -230 243 -422 484 -636 72 -64 56 -58 -42
15 -76 56 -213 198 -288 298 -86 114 -228 427 -224 493 1 10 7 -3 15 -28 8
-25 32 -89 55 -142z m363 86 c3 -8 2 -12 -4 -9 -6 3 -10 10 -10 16 0 14 7 11
14 -7z m1066 -9 c0 -8 -7 -15 -15 -15 -8 0 -15 7 -15 15 0 8 7 15 15 15 8 0
15 -7 15 -15z m105 5 c-3 -5 -11 -10 -16 -10 -6 0 -7 5 -4 10 3 6 11 10 16 10
6 0 7 -4 4 -10z m-1372 -203 c57 -96 120 -178 212 -278 51 -55 45 -50 -21 17
-50 51 -120 137 -156 191 -66 99 -138 232 -138 255 0 7 13 -14 29 -47 15 -33
49 -95 74 -138z m1104 123 c2 -19 -4 -20 -91 -20 -51 0 -140 -3 -197 -6 -101
-5 -105 -5 -134 20 l-30 25 225 1 c219 0 226 -1 227 -20z m420 -12 c-3 -8 -6
-5 -6 6 -1 11 2 17 5 13 3 -3 4 -12 1 -19z m-641 -93 c48 -29 65 -33 151 -39
152 -10 194 -17 190 -30 -5 -15 -156 -20 -222 -6 -54 11 -194 74 -230 104 -19
16 -18 16 18 10 22 -4 63 -21 93 -39z m172 29 c28 -4 52 -11 52 -15 0 -12
-104 -11 -115 0 -6 6 -30 11 -55 14 -44 3 -44 4 10 5 30 1 79 -1 108 -4z m752
-29 c0 -8 -7 -15 -15 -15 -8 0 -15 7 -15 15 0 8 7 15 15 15 8 0 15 -7 15 -15z
m-1415 -45 c21 -22 37 -40 34 -40 -3 0 -23 18 -44 40 -21 22 -37 40 -34 40 3
0 23 -18 44 -40z m225 -196 c25 -16 66 -41 93 -54 81 -43 96 -62 17 -24 -84
41 -219 135 -265 185 -21 22 -8 15 40 -22 39 -31 90 -69 115 -85z m980 107 c0
-23 -16 -36 -25 -21 -9 14 1 40 15 40 5 0 10 -9 10 -19z m740 -78 c0 -24 -17
-49 -26 -40 -4 4 -1 18 6 32 16 30 20 31 20 8z m-554 -22 c-4 -5 0 -12 6 -14
9 -4 7 -6 -3 -6 -9 -1 -24 -10 -35 -22 -10 -12 -32 -28 -49 -37 l-30 -15 27
34 c15 19 31 33 36 32 5 -1 18 7 27 17 19 21 30 27 21 11z m511 -30 c0 -11 -5
-18 -9 -15 -4 3 -15 -10 -24 -28 -15 -30 -123 -142 -130 -136 -1 2 33 44 76
93 44 50 80 93 80 98 0 4 2 7 4 7 3 0 4 -9 3 -19z m-387 0 c0 -6 -4 -13 -10
-16 -5 -3 -10 1 -10 9 0 9 5 16 10 16 6 0 10 -4 10 -9z m205 -82 c-59 -60
-198 -167 -266 -204 -69 -37 -61 -23 11 19 80 47 181 125 240 186 27 28 52 50
56 50 5 0 -14 -23 -41 -51z m-995 20 c74 -8 74 -8 -20 -3 -52 2 -99 9 -105 15
-7 9 -2 10 20 4 17 -4 64 -11 105 -16z m1060 -2 c0 -2 -10 -12 -22 -23 l-23
-19 19 23 c18 21 26 27 26 19z m-1208 -23 c40 -9 129 -22 198 -30 l125 -13
-116 4 c-115 4 -266 28 -283 46 -13 12 -10 12 76 -7z m-145 -51 c-8 -7 -37 9
-31 19 3 5 12 4 20 -3 8 -6 13 -14 11 -16z m550 21 c-3 -3 -12 -4 -19 -1 -8 3
-5 6 6 6 11 1 17 -2 13 -5z m-522 -59 c0 -25 -3 -45 -7 -45 -9 0 -10 52 -2 74
9 23 10 21 9 -29z m45 -12 c0 -31 -4 -53 -8 -47 -8 9 -4 104 4 104 2 0 4 -26
4 -57z m60 -7 c0 -30 -4 -58 -10 -61 -6 -4 -10 17 -10 54 0 34 4 61 10 61 6 0
10 -24 10 -54z m50 -31 c0 -43 -4 -75 -10 -75 -11 0 -14 133 -3 143 12 13 13
7 13 -68z m380 0 c0 -43 -4 -75 -10 -75 -6 0 -10 32 -10 75 0 43 4 75 10 75 6
0 10 -32 10 -75z m-322 -12 c-3 -43 -9 -78 -14 -78 -5 0 -10 35 -12 78 -2 66
0 77 13 77 15 0 16 -11 13 -77z m52 -3 c0 -47 -4 -80 -10 -80 -11 0 -14 142
-3 153 12 13 13 7 13 -73z m52 -23 c2 -40 -1 -57 -9 -57 -14 0 -19 141 -5 154
8 8 10 -6 14 -97z m58 17 c0 -43 -4 -74 -10 -74 -6 0 -10 34 -10 81 0 51 4 78
10 74 6 -3 10 -40 10 -81z m50 6 c0 -47 -4 -80 -10 -80 -11 0 -14 142 -3 153
12 13 13 7 13 -73z m60 -1 c0 -39 -4 -69 -10 -69 -6 0 -10 32 -10 76 0 47 4
73 10 69 6 -3 10 -37 10 -76z m710 -12 c0 -2 -27 -25 -60 -51 -34 -25 -58 -51
-55 -56 3 -5 0 -12 -6 -16 -8 -4 -9 -3 -5 4 11 17 -4 15 -48 -9 -65 -35 -60
-16 6 23 35 21 86 53 113 72 52 37 55 38 55 33z m-1095 -27 c3 -5 -1 -10 -9
-10 -9 0 -16 5 -16 10 0 6 4 10 9 10 6 0 13 -4 16 -10z m1025 -54 c0 -2 -8
-10 -17 -17 -16 -13 -17 -12 -4 4 13 16 21 21 21 13z m-1105 -35 c45 -13 59
-19 40 -19 -16 0 -52 8 -80 18 -65 24 -48 24 40 1z m920 2 c-56 -30 -170 -74
-275 -105 -94 -28 -121 -31 -255 -34 l-150 -2 124 8 c68 5 168 18 222 30 89
19 283 84 326 109 10 6 23 10 28 10 6 0 -3 -7 -20 -16z m-135 -10 c-19 -9 -87
-31 -150 -50 -172 -51 -381 -56 -578 -13 -82 18 -57 20 58 5 122 -17 287 -19
380 -5 36 5 119 25 185 44 134 38 156 42 105 19z m220 -28 c0 -2 -10 -9 -22
-15 -22 -11 -22 -10 -4 4 21 17 26 19 26 11z"/>
<path d="M2288 4173 c6 -2 18 -2 25 0 6 3 1 5 -13 5 -14 0 -19 -2 -12 -5z"/>
<path d="M2026 3961 c-4 -5 3 -7 14 -4 23 6 26 13 6 13 -8 0 -17 -4 -20 -9z"/>
<path d="M1990 3935 c-7 -8 -16 -12 -21 -9 -5 3 -9 1 -9 -3 0 -5 -12 -14 -27
-20 -25 -9 -26 -10 -5 -10 20 1 98 55 81 57 -4 0 -12 -7 -19 -15z"/>
<path d="M3150 3850 c20 -13 43 -13 35 0 -3 6 -16 10 -28 10 -18 0 -19 -2 -7
-10z"/>
<path d="M3292 3838 c-7 -7 -12 -19 -12 -27 1 -11 5 -9 13 7 11 18 15 20 27
10 12 -11 12 -10 1 5 -16 20 -14 20 -29 5z"/>
<path d="M1798 3793 c-84 -79 -178 -205 -231 -308 -62 -123 -127 -370 -127
-482 0 -51 1 -53 28 -53 19 0 23 3 13 9 -20 13 -9 151 23 271 53 202 151 380
292 529 83 88 84 110 2 34z"/>
<path d="M3300 3790 c0 -5 5 -10 10 -10 6 0 10 5 10 10 0 6 -4 10 -10 10 -5 0
-10 -4 -10 -10z"/>
<path d="M2864 3776 c31 -18 56 -22 41 -7 -6 5 -23 13 -40 16 l-30 7 29 -16z"/>
<path d="M2850 3743 c-45 -15 -45 -15 -20 -25 34 -13 71 -17 64 -7 -3 5 3 9
13 9 14 1 13 4 -7 15 -27 16 -28 16 -50 8z"/>
<path d="M1255 2863 c6 -70 17 -104 29 -92 2 2 2 41 -1 87 -5 63 -9 82 -21 82
-12 0 -13 -13 -7 -77z"/>
<path d="M1444 2923 c2 -10 8 -48 12 -85 5 -54 10 -68 23 -68 14 0 15 9 7 85
-9 73 -12 85 -29 85 -13 0 -17 -5 -13 -17z"/>
<path d="M3919 3852 c23 -33 23 -54 -1 -35 -7 6 -25 13 -40 15 l-27 5 14 -33
c8 -19 12 -34 9 -34 -6 0 32 -74 73 -142 45 -74 108 -246 140 -383 22 -95 26
-141 30 -341 6 -253 0 -301 -59 -497 -63 -216 -218 -462 -402 -640 -222 -215
-453 -340 -756 -408 -152 -34 -425 -22 -688 30 l-104 20 -66 -34 c-37 -19
-141 -71 -232 -116 -151 -74 -266 -135 -392 -211 -27 -15 -48 -26 -48 -24 0 3
5 17 10 31 6 16 7 33 1 42 -9 18 -4 27 44 77 17 17 45 52 63 78 41 60 137 256
159 324 l17 54 -30 25 c-16 14 -33 25 -38 25 -22 0 -237 234 -294 319 -34 52
-62 98 -62 103 0 6 -8 22 -18 36 -72 105 -162 419 -193 670 -7 56 -16 102 -19
102 -11 0 -65 -73 -79 -106 -9 -23 -10 -50 -2 -115 6 -46 11 -85 11 -87 0 -2
5 0 10 3 6 3 10 1 10 -4 0 -6 -4 -11 -9 -11 -4 0 -6 -11 -4 -24 3 -13 11 -23
20 -22 9 0 18 -5 20 -11 3 -7 -3 -13 -12 -13 -11 0 -15 -7 -13 -22 2 -17 9
-23 26 -22 27 1 29 -12 2 -21 -38 -12 -22 -33 31 -40 56 -8 59 -17 5 -17 -29
0 -36 -4 -36 -19 0 -14 7 -19 28 -19 15 0 34 -5 42 -10 12 -7 8 -11 -17 -16
-18 -4 -33 -11 -33 -16 0 -24 133 -280 182 -350 71 -103 186 -234 275 -314 40
-36 73 -71 73 -79 0 -24 -176 -441 -267 -633 -29 -62 -24 -76 15 -39 15 15 95
57 177 95 83 38 253 117 378 176 228 108 308 138 154 59 -128 -66 -415 -202
-492 -233 -105 -42 -208 -91 -203 -95 4 -4 294 119 428 183 47 22 159 75 249
117 l164 77 111 -22 c61 -12 161 -24 221 -26 l110 -3 -112 14 c-168 20 -164
22 32 17 207 -5 345 7 496 42 181 43 291 88 424 174 38 24 64 37 57 29 -24
-28 -160 -108 -253 -147 -102 -44 -169 -65 -284 -90 -44 -10 -68 -18 -53 -19
43 -2 245 54 339 94 208 87 380 206 544 378 133 137 240 291 319 457 62 130
85 198 123 355 25 101 27 127 27 330 0 240 -9 311 -64 489 -35 115 -53 151
-85 172 -14 9 -36 46 -54 89 -36 85 -37 92 -14 74 15 -13 15 -12 3 11 -29 55
-98 156 -115 170 -15 12 -14 8 4 -18z m246 -508 c9 -36 14 -68 12 -70 -4 -4
-57 167 -57 182 1 23 32 -52 45 -112z m-2899 -1434 c27 -36 85 -101 129 -146
116 -118 140 -146 86 -101 -68 57 -227 237 -266 302 -26 42 -7 22 51 -55z
m2592 -57 c-53 -58 -83 -96 -81 -103 1 -3 -5 -7 -13 -7 -11 0 -9 7 8 26 43 50
102 111 107 111 3 0 -7 -12 -21 -27z m-144 -154 c-10 -12 -18 -24 -16 -28 1
-3 -4 -6 -10 -6 -7 0 -13 -7 -13 -15 -1 -8 -6 -14 -12 -13 -6 1 -35 -20 -63
-47 -29 -28 -55 -50 -59 -50 -3 1 37 41 89 90 92 87 124 113 84 69z"/>
<path d="M1253 3743 c-21 -32 -49 -93 -35 -78 13 15 64 105 58 105 -3 0 -13
-12 -23 -27z"/>
<path d="M1160 3692 c0 -7 -3 -11 -7 -11 -26 4 -39 -11 -83 -103 -52 -108
-113 -299 -124 -383 -4 -34 -3 -43 3 -30 7 15 10 8 10 -32 1 -41 5 -55 23 -67
28 -20 34 -15 41 36 10 69 95 343 141 449 12 29 13 40 2 60 -8 16 -10 35 -5
54 5 16 6 31 4 34 -3 2 -5 -1 -5 -7z"/>
<path d="M2828 1243 c7 -3 16 -2 19 1 4 3 -2 6 -13 5 -11 0 -14 -3 -6 -6z"/>
</g>
</svg>
